<svg xmlns="http://www.w3.org/2000/svg" xmlns:xlink="http://www.w3.org/1999/xlink" viewBox="0 0 512 512"><defs><symbol id="overcast-smoke_g" viewBox="0 0 200.3 126.1"><path fill="url(#overcast-smoke_b)" stroke="#848b98" stroke-miterlimit="10" d="M.5 93.2a32.4 32.4 0 0032.4 32.4h129.8v-.1l2.3.1a34.8 34.8 0 006.5-68.9 32.4 32.4 0 00-48.5-33 48.6 48.6 0 00-88.6 37.1h-1.5A32.4 32.4 0 00.5 93.1Z"/></symbol><symbol id="overcast-smoke_h" viewBox="0 0 350 222"><path fill="url(#overcast-smoke_a)" stroke="#e6effc" stroke-miterlimit="10" stroke-width="6" d="m291 107-2.5.1A83.9 83.9 0 00135.6 43 56 56 0 0051 91a56.6 56.6 0 00.8 9A60 60 0 0063 219l4-.2v.2h224a56 56 0 000-112Z"/></symbol><symbol id="overcast-smoke_f" overflow="visible" viewBox="0 0 398 222"><use xlink:href="#overcast-smoke_g" width="200.3" height="126.1" transform="translate(198 27)"><animateTransform additive="sum" attributeName="transform" dur="6s" repeatCount="indefinite" type="translate" values="-9 0; 9 0; -9 0"/></use><use xlink:href="#overcast-smoke_h" width="350" height="222"><animateTransform additive="sum" attributeName="transform" dur="6s" repeatCount="indefinite" type="translate" values="-18 0; 18 0; -18 0"/></use></symbol><symbol id="overcast-smoke_i" overflow="visible" viewBox="0 0 168 212"><circle cx="86" cy="186" r="24" fill="url(#overcast-smoke_c)" stroke="#afb4bc" stroke-miterlimit="10" stroke-width="4" opacity="0"><animateTransform id="overcast-smoke_x1" additive="sum" attributeName="transform" begin="0s; x1.end+.75s" dur="2.25s" type="translate" values="0 0; -58 -118"/><animate id="overcast-smoke_y1" attributeName="r" begin="0s; y1.end+.75s" dur="2.25s" values="24; 36"/><animate id="overcast-smoke_z1" attributeName="opacity" begin="0s; y1.end+.75s" dur="2.25s" keyTimes="0; .17; .83; 1" values="0; 1; 1; 0"/></circle><circle cx="86" cy="186" r="24" fill="url(#overcast-smoke_c)" stroke="#afb4bc" stroke-miterlimit="10" stroke-width="4" opacity="0"><animateTransform id="overcast-smoke_x2" additive="sum" attributeName="transform" begin=".83s; x2.end+.75s" dur="2.25s" type="translate" values="0 0; 58 -118"/><animate id="overcast-smoke_y2" attributeName="r" begin=".83s; y2.end+.75s" dur="2.25s" values="24; 36"/><animate id="overcast-smoke_z2" attributeName="opacity" begin=".83s; z2.end+.75s" dur="2.25s" keyTimes="0; .17; .83; 1" values="0; 1; 1; 0"/></circle><circle cx="86" cy="186" r="24" fill="url(#overcast-smoke_c)" stroke="#afb4bc" stroke-miterlimit="10" stroke-width="4" opacity="0"><animateTransform id="overcast-smoke_x3" additive="sum" attributeName="transform" begin="1.66s; x3.end+.75s" dur="2.25s" type="translate" values="0 0; 0 -118"/><animate id="overcast-smoke_y3" attributeName="r" begin="1.66s; y3.end+.75s" dur="2.25s" values="24; 36"/><animate id="overcast-smoke_z3" attributeName="opacity" begin="1.66s; z3.end+.75s" dur="2.25s" keyTimes="0; .17; .83; 1" values="0; 1; 1; 0"/></circle></symbol><linearGradient id="overcast-smoke_a" x1="99.5" x2="232.6" y1="30.7" y2="261.4" gradientUnits="userSpaceOnUse"><stop offset="0" stop-color="#f3f7fe"/><stop offset=".5" stop-color="#f3f7fe"/><stop offset="1" stop-color="#deeafb"/></linearGradient><linearGradient id="overcast-smoke_b" x1="52.7" x2="133.4" y1="9.6" y2="149.3" gradientUnits="userSpaceOnUse"><stop offset="0" stop-color="#9ca3af"/><stop offset=".5" stop-color="#9ca3af"/><stop offset="1" stop-color="#6b7280"/></linearGradient><linearGradient id="overcast-smoke_c" x1="74" x2="98" y1="165.2" y2="206.8" gradientUnits="userSpaceOnUse"><stop offset="0" stop-color="#b8bdc6"/><stop offset=".5" stop-color="#b8bdc6"/><stop offset="1" stop-color="#a5aab2"/></linearGradient></defs><use xlink:href="#overcast-smoke_f" width="398" height="222" transform="translate(68.84 145)"/><use xlink:href="#overcast-smoke_i" width="168" height="212" transform="translate(172 232)"/></svg>